<?xml version="1.0" standalone="no"?>
<!DOCTYPE svg PUBLIC "-//W3C//DTD SVG 20010904//EN"
 "http://www.w3.org/TR/2001/REC-SVG-20010904/DTD/svg10.dtd">
<svg version="1.0" xmlns="http://www.w3.org/2000/svg"
 width="1236.000000pt" height="1236.000000pt" viewBox="0 0 1236.000000 1236.000000"
 preserveAspectRatio="xMidYMid meet">
<metadata>
Created by potrace 1.14, written by Peter Selinger 2001-2017
</metadata>
<g transform="translate(0.000000,1236.000000) scale(0.100000,-0.100000)"
fill="#000000" stroke="none">
<path d="M4950 9189 c-74 -61 -144 -118 -155 -127 -11 -10 -45 -37 -75 -62
-30 -25 -57 -47 -60 -50 -3 -3 -30 -25 -60 -50 -30 -25 -64 -53 -75 -62 -37
-31 -280 -230 -319 -262 -21 -17 -43 -36 -50 -41 -6 -6 -63 -53 -126 -105 -63
-51 -117 -96 -120 -99 -3 -3 -41 -35 -85 -71 -44 -36 -89 -72 -100 -82 -79
-65 -218 -179 -255 -209 -25 -20 -58 -49 -75 -63 -16 -14 -34 -26 -38 -26 -10
0 42 -76 75 -110 13 -14 41 -46 62 -72 21 -27 41 -48 45 -48 4 0 41 28 82 63
42 34 95 78 119 97 25 19 60 49 80 66 19 17 150 124 290 239 140 115 257 212
260 215 3 3 30 25 60 50 30 25 64 53 75 62 242 201 582 478 587 478 6 0 117
-89 223 -178 11 -10 97 -80 190 -157 94 -77 181 -150 195 -161 14 -12 95 -79
180 -149 166 -136 228 -187 269 -222 14 -12 60 -50 101 -84 41 -34 93 -76 115
-94 203 -168 274 -225 280 -225 4 0 13 6 19 14 6 8 47 58 90 111 l79 97 -34
26 c-19 15 -74 61 -124 102 -49 41 -97 80 -105 87 -59 47 -223 185 -236 197
-8 9 -18 16 -22 16 -4 0 -20 13 -37 28 -16 15 -106 90 -200 167 -93 77 -172
142 -175 145 -3 3 -68 57 -145 120 -77 62 -156 128 -175 144 -20 17 -53 45
-74 61 -21 17 -44 35 -50 40 -6 6 -78 66 -161 134 -82 67 -160 131 -173 142
-12 10 -26 19 -30 19 -4 0 -68 -50 -142 -111z"/>
<path d="M3697 7435 c-1 -2 -27 -5 -57 -8 -115 -11 -222 -79 -270 -173 -34
-67 -36 -205 -4 -275 57 -124 196 -193 369 -183 139 7 249 73 301 181 23 46
28 69 28 132 -1 173 -113 295 -297 319 -37 5 -68 8 -70 7z"/>
<path d="M6439 7429 c-135 -12 -236 -74 -291 -179 -34 -65 -33 -204 1 -273 61
-124 187 -188 356 -182 103 4 181 34 245 94 58 55 87 115 93 195 13 173 -101
316 -273 341 -24 4 -47 8 -50 9 -3 1 -39 -1 -81 -5z"/>
<path d="M357 7082 c-13 -3 -15 -8 -7 -22 9 -17 118 -313 123 -335 1 -5 8 -23
14 -40 7 -16 114 -313 238 -660 125 -346 275 -765 335 -930 59 -165 161 -447
225 -627 l118 -328 306 0 306 0 72 198 c39 108 92 256 118 327 26 72 85 236
132 365 46 129 143 397 215 595 71 198 149 414 173 480 24 66 92 253 150 415
58 162 128 355 154 428 29 78 44 132 37 133 -49 4 -499 3 -505 -1 -4 -3 -23
-52 -43 -110 -49 -141 -146 -420 -323 -925 -80 -231 -167 -478 -191 -550 -25
-71 -49 -139 -53 -150 -5 -11 -60 -166 -122 -345 -61 -179 -114 -327 -116
-329 -7 -9 -14 9 -62 150 -49 143 -160 462 -221 634 -17 50 -38 110 -47 135
-25 74 -210 608 -292 843 -22 61 -81 231 -131 377 -51 146 -94 267 -96 269 -5
5 -483 7 -507 3z"/>
<path d="M5732 6468 c-277 -31 -512 -174 -667 -406 l-43 -63 0 203 c0 112 -1
210 -1 219 -1 14 -29 16 -236 16 -129 0 -235 -2 -236 -6 0 -8 0 -2251 0 -2273
1 -17 19 -18 236 -18 217 0 235 1 236 18 0 9 2 298 3 642 2 344 7 645 10 668
19 121 94 265 170 326 142 115 288 159 539 160 100 1 108 2 112 21 2 11 3 128
2 260 l-2 240 -30 0 c-16 0 -58 -3 -93 -7z"/>
<path d="M3405 5298 l0 -1153 295 0 295 0 0 1153 0 1152 -295 0 -295 0 0
-1152z"/>
<path d="M6185 5295 l0 -1155 295 0 295 0 0 1155 0 1155 -295 0 -295 0 0
-1155z"/>
<path d="M7070 6428 c0 -9 123 -300 181 -426 16 -35 29 -65 29 -67 0 -3 594
-1383 624 -1450 8 -16 39 -89 70 -161 l56 -130 -21 -50 c-23 -53 -48 -110 -78
-176 -10 -24 -81 -187 -156 -363 -76 -176 -151 -348 -166 -383 -16 -34 -29
-65 -29 -67 0 -3 -11 -28 -24 -55 l-24 -50 41 -1 c162 -3 489 0 494 5 3 3 23
48 43 100 21 52 89 217 151 368 61 150 138 338 171 418 32 80 63 154 68 165 5
11 19 45 31 75 11 30 27 71 36 90 8 19 19 44 24 55 5 11 24 58 42 105 19 47
117 285 217 530 289 704 442 1078 529 1295 29 72 57 138 62 147 5 10 9 22 9
27 0 13 -518 11 -528 -3 -5 -6 -77 -191 -160 -411 -83 -220 -199 -526 -257
-680 -59 -154 -108 -284 -109 -290 -2 -5 -7 -21 -13 -35 -6 -14 -25 -63 -42
-110 -18 -47 -38 -98 -45 -115 l-13 -29 -21 54 c-28 74 -70 178 -87 215 -7 17
-52 127 -99 245 -48 118 -91 224 -96 235 -23 48 -370 907 -370 915 0 5 -8 11
-17 14 -33 9 -523 3 -523 -6z"/>
<path d="M9716 6431 c-9 -14 -4 -1438 5 -1500 5 -36 12 -83 15 -105 11 -78 56
-213 97 -290 128 -239 362 -395 635 -423 167 -16 316 -2 447 42 209 72 368
211 457 400 16 36 31 65 31 65 1 0 2 -107 2 -237 l0 -238 240 -3 240 -2 0
1145 c0 1139 0 1146 -20 1150 -11 2 -119 3 -240 2 l-220 -2 -1 -670 c-1 -593
-3 -679 -19 -750 -36 -168 -77 -248 -174 -345 -132 -130 -322 -187 -533 -158
-269 36 -437 215 -482 513 -2 17 -5 341 -5 721 l-1 691 -235 0 c-130 0 -237
-3 -239 -6z"/>
</g>
</svg>
